<?xml version="1.0" encoding="UTF-8"?>
<svg width="27px" height="16px" viewBox="0 0 27 16" version="1.1" xmlns="http://www.w3.org/2000/svg" xmlns:xlink="http://www.w3.org/1999/xlink">
    <!-- Generator: sketchtool 46 (44423) - http://www.bohemiancoding.com/sketch -->
    <title>F11B7B0C-5A49-41F3-BD98-3ECFC50400A1</title>
    <desc>Created with sketchtool.</desc>
    <defs></defs>
    <g id="Page-1" stroke="none" stroke-width="1" fill="none" fill-rule="evenodd">
        <g id="Успешное-оформление-заказа" transform="translate(-118.000000, -648.000000)">
            <g id="MasterCard" transform="translate(118.000000, 648.000000)">
                <path d="M26.9255593,7.93219048 C26.9255593,3.5544381 23.3726949,0.00533333333 18.9903051,0.00533333333 C17.0884068,0.00533333333 15.3582712,0.670171429 13.9914915,1.78453333 C15.0339661,2.78979048 15.8297797,4.0487619 16.2565932,5.47169524 L15.5973051,5.47169524 C15.1842203,4.20662857 14.4584237,3.0904381 13.5149492,2.19474286 C12.5769661,3.088 11.8578814,4.20860952 11.4460169,5.46788571 L10.7864237,5.46788571 C11.2117119,4.05302857 11.9939492,2.79238095 13.028339,1.79017143 C11.6650678,0.687085714 9.94286441,0.00533333333 8.05179661,0.00533333333 C3.66940678,0.00533333333 0.116542373,3.5544381 0.116542373,7.93219048 C0.116542373,12.3100952 3.66940678,15.8590476 8.05179661,15.8590476 C9.94286441,15.8590476 11.6650678,15.1772952 13.028339,14.0742095 C11.9939492,13.072 11.2117119,11.8113524 10.7864237,10.3964952 L11.4460169,10.3964952 C11.8578814,11.6557714 12.5769661,12.776381 13.5149492,13.6696381 C14.4584237,12.7739429 15.1842203,11.6577524 15.5973051,10.3926857 L16.2565932,10.3928381 C15.8297797,11.815619 15.0339661,13.0745905 13.9914915,14.08 C15.3582712,15.1942095 17.0884068,15.8590476 18.9903051,15.8590476 C23.3726949,15.8590476 26.9255593,12.3100952 26.9255593,7.93219048" id="Fill-2" fill="#A3A3A3"></path>
                <path d="M21.0934068,9.78925714 L21.6414915,6.85622857 L22.3341864,6.85622857 L22.4064915,7.14544762 C22.5305085,7.00068571 22.7684746,6.85622857 23.1716441,6.85622857 L22.9545763,7.62026667 C22.7581017,7.62026667 22.3858983,7.56891429 22.1480847,8.44647619 L21.8998983,9.78925714 L21.0934068,9.78925714" id="Fill-3" fill="#FFFFFE"></path>
                <path d="M10.4758475,6.11062857 L11.2742542,6.11062857 L11.1105763,6.88777143 L11.5402881,6.88777143 L11.3972034,7.52167619 L10.9877797,7.52167619 L10.7624746,8.70765714 C10.7214407,8.93272381 10.7420339,9.13721905 11.2027119,9.06575238 L11.1514576,9.65866667 C10.9774068,9.77112381 10.7420339,9.80190476 10.5577627,9.80190476 C10.3736441,9.80190476 9.76942373,9.68929524 9.92318644,8.89188571 L10.4758475,6.11062857" id="Fill-4" fill="#FFFFFE"></path>
                <path d="M13.9355085,8.48289524 C14.0276441,8.01234286 14.2427288,6.84693333 12.8404068,6.84693333 C11.550661,6.84693333 11.3868305,8.12510476 11.3561695,8.30902857 C11.3255085,8.49310476 11.3049153,9.79154286 12.6867966,9.79154286 C13.024678,9.80190476 13.5158644,9.76106667 13.7105085,9.65866667 L13.8333051,9.05539048 C13.7105085,9.08601905 13.2498305,9.12700952 12.9323898,9.12700952 C12.6151017,9.12700952 12.1034746,9.14758095 12.1954576,8.48289524 L13.9355085,8.48289524" id="Fill-5" fill="#FFFFFE"></path>
                <path d="M9.71847458,7.54224762 L9.90259322,6.94902857 C9.52383051,6.80594286 9.22713559,6.83672381 9.11440678,6.83672381 C9.00183051,6.83672381 8.04325424,6.82499048 7.89635593,7.53188571 C7.78377966,8.07390476 7.98254237,8.29820952 8.17276271,8.38049524 C8.47998305,8.51352381 8.6540339,8.6360381 8.81771186,8.71801905 C9.02028814,8.81904762 8.98322034,9.15748571 8.71535593,9.15748571 C8.59240678,9.15748571 8.06018644,9.21904762 7.66098305,9.08601905 L7.54855932,9.68929524 C7.91694915,9.79154286 8.21364407,9.79154286 8.49020339,9.79154286 C8.68469492,9.79154286 9.63655932,9.84274286 9.76942373,8.96335238 C9.83455932,8.5344 9.64662712,8.33965714 9.49316949,8.24761905 C9.33971186,8.14537143 9.08374576,8.00228571 8.91991525,7.93066667 C8.75623729,7.85904762 8.63328814,7.58308571 8.93028814,7.50125714 C9.11440678,7.48068571 9.49316949,7.48068571 9.71847458,7.54224762" id="Fill-6" fill="#FFFFFE"></path>
                <polyline id="Fill-7" fill="#FFFFFE" points="4.53905085 9.79154286 5.20444068 6.25371429 3.89425424 6.25371429 2.92164407 8.40106667 2.76818644 6.25371429 1.48866102 6.25371429 0.802983051 9.79154286 1.60123729 9.79154286 2.09257627 7.23535238 2.30750847 9.79154286 3.0650339 9.79154286 4.18088136 7.2967619 3.70998305 9.79154286 4.53905085 9.79154286"></polyline>
                <path d="M5.41922034,6.93897143 L5.29642373,7.57272381 C5.4910678,7.55245714 6.0130678,7.47078095 6.28932203,7.48068571 C6.56588136,7.49104762 6.87279661,7.45020952 6.78066102,7.88967619 C6.57594915,7.91024762 5.1429661,7.68533333 4.91781356,8.91215238 C4.82567797,9.51558095 5.34767797,9.82217143 5.75710169,9.80190476 C6.16652542,9.78133333 6.27910169,9.73013333 6.42249153,9.6280381 L6.52484746,9.79154286 L7.272,9.79154286 L7.58944068,8.19657143 C7.67135593,7.79794286 7.80422034,6.83672381 6.46337288,6.83672381 C6.21777966,6.84693333 5.94152542,6.83672381 5.41922034,6.93897143" id="Fill-8" fill="#FFFFFE"></path>
                <path d="M18.3574068,7.07184762 C18.1526949,6.94902857 18.0094576,6.9287619 17.7432712,6.9287619 C17.4772373,6.9287619 16.8835424,7.18278095 16.7708136,7.9000381 C16.6377966,8.74864762 17.2212712,9.16784762 18.0402712,8.89188571 L18.2754915,9.60746667 C18.0094576,9.73013333 17.7432712,9.79154286 17.3031864,9.79154286 C16.4739661,9.79154286 15.5732034,9.05539048 15.9826271,7.56251429 C16.2845085,6.46247619 17.2316441,6.05958095 17.7841525,6.07984762 C18.439322,6.10422857 18.6748475,6.32518095 18.8795593,6.55024762 L18.3574068,7.07184762" id="Fill-9" fill="#FFFFFE"></path>
                <path d="M25.1644576,7.1943619 C25.0106949,7.08205714 24.9187119,6.84693333 24.5399492,6.84693333 C24.0998644,6.84693333 23.4140339,6.76510476 23.0250508,8.09417143 C22.7652712,8.98270476 23.2912373,9.79154286 23.864339,9.79154286 C24.1305254,9.78133333 24.3965593,9.66887619 24.5603898,9.55657143 L24.6628983,9.79154286 L25.5226271,9.79154286 L26.218678,6.06979048 L25.3792373,6.06979048 L25.1644576,7.1943619" id="Fill-10" fill="#FFFFFE"></path>
                <path d="M18.930661,6.93897143 L18.8077119,7.57272381 C19.0023559,7.55245714 19.5243559,7.47078095 19.8007627,7.48068571 C20.0771695,7.49104762 20.3842373,7.45020952 20.2919492,7.88967619 C20.0872373,7.91024762 18.6542542,7.68533333 18.4292542,8.91215238 C18.3369661,9.51558095 18.8589661,9.82217143 19.2683898,9.80190476 C19.6778136,9.78133333 19.7903898,9.73013333 19.9337797,9.6280381 L20.0362881,9.79154286 L20.7834407,9.79154286 L21.1007288,8.19657143 C21.1827966,7.79794286 21.3155085,6.83672381 19.9748136,6.83672381 C19.7290678,6.84693333 19.4528136,6.83672381 18.930661,6.93897143" id="Fill-11" fill="#FFFFFE"></path>
                <path d="M12.2467119,7.9512381 L13.2396102,7.9512381 C13.2908644,7.66491429 13.1985763,7.41942857 12.8814407,7.41942857 C12.5638475,7.41942857 12.3388475,7.58308571 12.2467119,7.9512381" id="Fill-12" fill="#A3A3A3"></path>
                <path d="M6.64779661,8.48289524 C6.51462712,8.46217143 6.21777966,8.38049524 5.96181356,8.5543619 C5.70584746,8.72822857 5.63430508,9.03481905 5.90049153,9.13721905 C6.15661017,9.23565714 6.53476271,9.06605714 6.58632203,8.79969524 L6.64779661,8.48289524" id="Fill-13" fill="#A3A3A3"></path>
                <path d="M24.8778305,8.39070476 C24.9597458,8.12510476 24.9150508,7.79306667 24.8265763,7.67527619 C24.5809831,7.3479619 24.0161186,7.60670476 23.8438983,8.24761905 C23.7314746,8.66666667 23.9772203,8.98392381 24.2534746,8.98392381 C24.550322,8.98392381 24.7344407,8.74864762 24.8778305,8.39070476" id="Fill-14" fill="#A3A3A3"></path>
                <path d="M20.1590847,8.48289524 C20.0260678,8.46217143 19.7290678,8.38049524 19.4731017,8.5543619 C19.2171356,8.72822857 19.1455932,9.03481905 19.4119322,9.13721905 C19.6680508,9.23565714 20.0460508,9.06605714 20.0976102,8.79969524 L20.1590847,8.48289524" id="Fill-15" fill="#A3A3A3"></path>
                <path d="M13.9585424,9.79154286 L14.5009831,6.88777143 L15.1869661,6.88777143 L15.2585085,7.17409524 C15.3813051,7.03085714 15.616678,6.88777143 16.0158814,6.88777143 L15.8111695,7.65470476 C15.616678,7.65470476 15.2379153,7.59344762 15.0025424,8.46217143 L14.7569492,9.79154286 L13.9585424,9.79154286" id="Fill-16" fill="#FFFFFE"></path>
            </g>
        </g>
    </g>
</svg>