<?xml version="1.0" encoding="UTF-8"?>
<svg width="36px" height="12px" viewBox="0 0 36 12" version="1.1" xmlns="http://www.w3.org/2000/svg" xmlns:xlink="http://www.w3.org/1999/xlink">
    <!-- Generator: sketchtool 46 (44423) - http://www.bohemiancoding.com/sketch -->
    <title>C18EA18F-C11C-4E5D-8545-4CC6D4D25A36</title>
    <desc>Created with sketchtool.</desc>
    <defs></defs>
    <g id="Page-1" stroke="none" stroke-width="1" fill="none" fill-rule="evenodd">
        <g id="Успешное-оформление-заказа" transform="translate(-155.000000, -650.000000)" fill="#979797">
            <g id="visa" transform="translate(155.000000, 650.000000)">
                <polyline id="Fill-75" points="10.8102068 11.2775148 14.1296093 0.332388561 17.0912191 0.332388561 13.7716031 11.2775148 10.8102068 11.2775148"></polyline>
                <path d="M9.48598953,0.335590763 L6.82175752,4.97536788 C6.14353115,6.19049678 5.74688507,6.80425215 5.55646079,7.57214017 L5.51589957,7.57214017 C5.56307868,6.5984573 5.42730532,5.40339554 5.41470999,4.72794441 L5.12032089,0.335590763 L0.134705961,0.335590763 L0.0834707304,0.63019334 C1.3643515,0.63019334 2.1239138,1.27340897 2.33291085,2.58972744 L3.3046724,11.2775148 L6.37302229,11.2775148 L12.5773953,0.335590763 L9.48598953,0.335590763" id="Fill-76"></path>
                <path d="M32.1787137,4.82144871 C32.1458378,4.0125725 32.1185124,2.9146442 32.1731633,2.25029404 L32.1296133,2.25029404 C31.9496496,2.79381445 31.1751437,4.42522959 30.8346429,5.22791488 L29.7326584,7.62679108 L32.3294307,7.62679108 L32.1787137,4.82144871 Z M32.5185741,11.2775148 L32.4368112,9.64994227 L28.738695,9.64695354 L27.9821214,11.2775148 L24.7664702,11.2775148 L30.5970395,0.353523093 L34.5440736,0.353523093 L35.5312057,11.2775148 L32.5185741,11.2775148 L32.5185741,11.2775148 Z" id="Fill-77"></path>
                <path d="M20.2005572,11.5883418 C18.1095193,11.5883418 16.7218985,10.9252726 15.7313507,10.3341461 L17.1422409,8.17927766 C18.0313856,8.67668636 18.7296791,9.25073443 20.336544,9.25073443 C20.853166,9.25073443 21.3507881,9.11645542 21.6336493,8.62694549 C22.045666,7.91498926 21.5386506,7.53200591 20.3818018,6.87704887 L19.8103155,6.50559345 C18.0954296,5.33358754 17.3535862,4.22028867 18.160968,2.27719253 C18.6773765,1.0345247 20.0402336,0.0922234157 22.2881794,0.0922234157 C23.8382586,0.0922234157 25.2916313,0.762764501 26.1387205,1.41793502 L24.5166984,3.32025644 C23.6898899,2.65206364 23.0052591,2.31369764 22.2211466,2.31369764 C21.5960768,2.31369764 21.121297,2.55493018 20.9571308,2.88006042 C20.648652,3.49125403 21.056826,3.90796724 21.9583526,4.46728518 L22.6378598,4.89958244 C24.7199315,6.21291219 25.2162728,7.5900725 24.6943139,8.87735768 C23.7964165,11.0937084 22.0390481,11.5883418 20.2005572,11.5883418" id="Fill-78"></path>
            </g>
        </g>
    </g>
</svg>